<?xml version="1.0" encoding="utf-8"?>
<!-- Generator: Adobe Illustrator 16.0.0, SVG Export Plug-In . SVG Version: 6.00 Build 0)  -->
<!DOCTYPE svg PUBLIC "-//W3C//DTD SVG 1.1//EN" "http://www.w3.org/Graphics/SVG/1.1/DTD/svg11.dtd">
<svg version="1.1" id="Layer_1" xmlns="http://www.w3.org/2000/svg" xmlns:xlink="http://www.w3.org/1999/xlink" x="0px" y="0px"
	 width="195px" height="217px" viewBox="0 0 195 217" enable-background="new 0 0 195 217" xml:space="preserve">
<g>
	<path fill-rule="evenodd" clip-rule="evenodd" fill="#FDDECC" d="M77.916,129.064c-42.928,18.818-55.805,28.85-60.896,33.355
		c-7.845,6.94-12.183,32.815-16.81,54.783h97.121h97.119c-4.625-21.968-8.965-47.843-16.809-54.783
		c-5.088-4.506-17.494-14.279-60.424-33.101L77.916,129.064z"/>
	<path fill-rule="evenodd" clip-rule="evenodd" fill="#7491A0" d="M77.915,129.064c-42.927,18.818-55.804,28.85-60.895,33.355
		c-7.845,6.94-12.183,32.815-16.81,54.783h97.121h97.119c-4.625-21.968-8.965-47.843-16.809-54.783
		c-5.088-4.506-17.494-14.279-60.424-33.101L77.915,129.064z"/>
	<path fill-rule="evenodd" clip-rule="evenodd" fill="#F5D9C7" d="M76.49,91.548v31.858v15.727
		c11.463,13.554,30.221,14.041,41.686,0v-15.727V91.548C118.176,65.855,76.49,65.855,76.49,91.548z"/>
	<path fill-rule="evenodd" clip-rule="evenodd" fill="#F5D9C7" d="M53.867,61.635c3.67-1.211,8.342,2.957,10.432,9.305
		c2.092,6.349,0.811,12.476-2.862,13.685c-3.67,1.208-8.342-2.956-10.431-9.308C48.912,68.969,50.195,62.844,53.867,61.635z"/>
	<path fill-rule="evenodd" clip-rule="evenodd" fill="#F5D9C7" d="M140.615,61.635c-3.674-1.211-8.346,2.957-10.436,9.305
		c-2.092,6.349-0.807,12.476,2.861,13.685c3.674,1.208,8.346-2.956,10.436-9.308C145.566,68.969,144.283,62.844,140.615,61.635z"/>
	<path fill-rule="evenodd" clip-rule="evenodd" fill="#343434" d="M88.369,159.135l5.049,7.821c2.607,0,5.219,0,7.828,0l5.051-7.821
		l-8.855-9.653L88.369,159.135z"/>
	<polygon fill-rule="evenodd" clip-rule="evenodd" fill="#343434" points="93.418,166.956 86.23,217.203 108.436,217.203 
		101.246,166.956 	"/>
	<path fill-rule="evenodd" clip-rule="evenodd" fill="#EDEDED" d="M76.49,123.406l-1.822,7.089l5.1,36.91l17.674-17.924
		L76.49,123.406z"/>
	<path opacity="0.2" fill="#010101" d="M76.49,114.591v1.504c0,0,10.648,12.639,20.805,13.095s20.881-12.236,20.881-12.236v-2.311"
		/>
	<path fill-rule="evenodd" clip-rule="evenodd" fill="#F5D9C7" d="M97.367,6.119c-64.125,0-39.547,87.837-35.358,94.566
		c4.618,7.421,25,23.778,35.358,23.778c10.361,0,30.74-16.357,35.361-23.778C136.918,93.956,161.494,6.119,97.367,6.119z"/>
	<path fill="#BE9740" d="M126.939,8.17c-22.092-19.488-65.357,5.396-75.455,19.597c4.074,14.276,2.092,32.479,5.084,52.754
		c0-0.03,0-0.058-0.002-0.088c0.035,0.204,0.076,0.412,0.131,0.629c0.043,0.165,0.404,0.632,0.475,0.76
		c0.105,0.191,0.889-0.017,1.15-0.143c0.094-0.044,0.137-0.168,0.141-0.271c0.121-1.79,0.012-5.336,0.008-5.376
		c-0.236-2.789,0.16-5.625-0.248-8.352c2.027-12.782,0.391-13.318,7.375-26.083c0.589-1.076,4.326-5.44,4.834-5.833
		c11.654-4.27,15.717,2.844,26.719,7.334c4.207,1.717,10.543,1.833,15.197,1.833c7.25,0,14.275-7.96,14.422-9.633
		c8.715,13.467,9.607,23.089,12.166,34.657c-0.35,2.008-0.729,4.016-0.902,6.078c-0.006,0.04-0.113,3.586,0.006,5.376
		c0.006,0.104,0.049,0.228,0.143,0.271c0.26,0.126,1.045,0.334,1.15,0.143c0.07-0.128,0.432-0.595,0.475-0.76
		c0.197-0.772,0.236-1.423,0.275-2.198c0.133-1.011,0.311-2.095,0.445-3.186C143.869,63.162,150.01,13.546,126.939,8.17z
		 M94.115,24.919c-0.361-0.113-0.721-0.217-1.08-0.322c0.535,0.13,1.07,0.269,1.607,0.42C94.467,24.981,94.291,24.951,94.115,24.919
		z"/>
	<path fill-rule="evenodd" clip-rule="evenodd" fill="#EDEDED" d="M118.176,123.406l1.438,6.972l-4.791,37.396l-17.381-18.293
		L118.176,123.406z"/>
	<polyline opacity="0.05" fill="#010101" points="76.49,123.406 97.441,149.481 118.176,123.406 118.176,122.785 97.441,148.744 
		76.49,122.785 76.49,123.406 	"/>
	<polygon opacity="0.1" fill-rule="evenodd" clip-rule="evenodd" fill="#010101" points="93.418,166.956 101.246,166.956 
		101.283,167.212 93.381,167.212 	"/>
</g>
</svg>
